<?xml version="1.0" encoding="utf-8"?>
<!-- Generator: Adobe Illustrator 26.1.0, SVG Export Plug-In . SVG Version: 6.00 Build 0)  -->
<svg version="1.1" id="a" xmlns="http://www.w3.org/2000/svg" xmlns:xlink="http://www.w3.org/1999/xlink" x="0px" y="0px"
	 viewBox="0 0 254 369" style="enable-background:new 0 0 254 369;" xml:space="preserve">
<style type="text/css">
	.st0{fill:#E30613;}
	.st1{fill:#FFFFFF;}
</style>
<path class="st0" d="M219.2,102.4V67.6h-34.7V34.9h-35.9V0H105v34.9H69.1v32.7H34.5v34.8H0V215c0.3,46.8,18.5,84,54,110.5
	c18.5,13.9,37.1,24.9,49.5,31.7l23.5,12.2l23.7-12.3l0.1-0.1c12.1-6.7,30.5-17.5,49.2-31.5c35.6-26.6,53.7-63.9,54-111V102.4H219.2
	L219.2,102.4z"/>
<path class="st1" d="M127,186.9c-9-9-16.4-16.4-19.4-19.4c-1.4-1.4-1.4-1.4-7.4,4.5c-5.4,5.4-5.5,5.5-4.1,6.8
	c7,7,13.3,13.3,19.5,19.5c-9,9-16.4,16.4-19.4,19.4c-1.4,1.4-1.4,1.4,4.5,7.4c5.4,5.4,5.5,5.5,6.8,4.1c7-7,13.3-13.3,19.5-19.5
	c6.1,6.1,12.5,12.5,19.7,19.7c1.1,1.1,1.1,1.1,6.6-4.3c5.8-5.8,5.8-6,4.6-7.2c-6.3-6.3-13-13-19.5-19.5c6.1-6.1,12.5-12.5,19.7-19.7
	c1.1-1.1,1.1-1.1-4.3-6.6c-5.8-5.8-6-5.8-7.2-4.6C140.3,173.6,133.5,180.4,127,186.9L127,186.9z"/>
<path d="M127,268.8c-7-7-12.5-12.5-15.5-15.5c-1.4-1.4-1.4-1.4-7.4,4.5c-5.4,5.4-5.5,5.5-4.1,6.8c6.4,6.4,11.2,11.2,15.6,15.6
	c-4.4,4.4-9.3,9.3-15.8,15.8c-1.1,1.1-1.1,1.1,4.3,6.6c5.8,5.8,6,5.8,7.2,4.6c5.5-5.5,10.8-10.8,15.7-15.7
	c4.4,4.4,9.3,9.3,15.8,15.8c1.1,1.1,1.1,1.1,6.6-4.3c5.8-5.8,5.8-6,4.6-7.2c-5.5-5.5-10.8-10.8-15.7-15.6c7-7,12.5-12.5,15.5-15.5
	c1.4-1.4,1.4-1.4-4.5-7.4c-5.4-5.4-5.5-5.5-6.8-4.1C136.2,259.6,131.4,264.4,127,268.8L127,268.8z"/>
<path d="M142.6,89.4c-6.4,6.4-11.2,11.2-15.6,15.6c-7-7-12.5-12.5-15.5-15.5c-1.4-1.4-1.4-1.4-7.4,4.5c-5.4,5.4-5.5,5.5-4.1,6.8
	c6.4,6.4,11.2,11.2,15.6,15.6c-4.4,4.4-9.3,9.3-15.8,15.8c-1.1,1.1-1.1,1.1,4.3,6.6c5.8,5.8,6,5.8,7.2,4.6
	c5.5-5.5,10.8-10.8,15.7-15.6c4.4,4.4,9.3,9.3,15.8,15.8c1.1,1.1,1.1,1.1,6.6-4.3c5.8-5.8,5.8-6,4.6-7.2
	c-5.5-5.5-10.8-10.8-15.7-15.6c7-7,12.5-12.5,15.5-15.5c1.4-1.4,1.4-1.4-4.5-7.4C144,88.2,143.9,88.1,142.6,89.4z"/>
<path class="st1" d="M33.7,257.2V143.4c0-2.3,0-2.8,1.1-4c1.1-1.4,2-1.4,3.8-1.4h38.1c2.2,0,2.2,1.2,2.2,8.2c0,8-0.2,11.6-2.9,11.6
	H58.4c-1.5,0-3.3,0.2-4,0.7c-1.3,1.2-1.1,2.6-1.1,4.9v19.5c0,1.6-0.2,3.5,1.1,4.5c1.1,0.9,2.5,0.7,4,0.7c3.1,0.2,8.5,0.2,10.2,0.2
	c2.5,0,2.7,2.7,2.7,10.3c0,7.7,0,9.3-2.7,9.3c-1.5,0-6.5-0.2-9.6,0c-1.8,0-3.8,0-4.5,0.5c-1.6,1-1.3,3.3-1.3,5.6v43
	c0,3-1.5,2.8-10.7,2.8C34.8,259.8,33.8,260,33.7,257.2L33.7,257.2z"/>
<path class="st1" d="M209.5,163.3c0-2.4-1.8-7.3-6.1-7.3c-5.1,0-6.3,5.4-6.3,9.9v65.7c0,4.9,1.2,9.9,6.3,9.9c4.8,0,6.1-4.2,6.1-7
	v-23.3c0-2.4,1.5-2.3,8.7-2.3c7.3,0,8.4,0.2,8.4,3.3v23.3c0,14.5-7.9,24.4-23.2,24.4s-23.9-11.2-23.9-24.4v-73
	c0-13.4,9.1-24.6,23.9-24.6c14.8,0,23.2,11.8,23.2,24.6v23.7c0,1.7-1.3,2.3-8.9,2.3c-5.4,0-8.2,0.4-8.2-1.9L209.5,163.3L209.5,163.3
	z"/>
</svg>
