<?xml version="1.0" encoding="utf-8"?>
<!-- Generator: Adobe Illustrator 26.1.0, SVG Export Plug-In . SVG Version: 6.00 Build 0)  -->
<svg version="1.1" id="a" xmlns="http://www.w3.org/2000/svg" xmlns:xlink="http://www.w3.org/1999/xlink" x="0px" y="0px"
	 viewBox="0 0 636 217" style="enable-background:new 0 0 636 217;" xml:space="preserve">
<style type="text/css">
	.st0{fill:#E30613;}
</style>
<g>
	<path class="st0" d="M163.9,96.6c-8.9-8.9-16.1-16.1-19.1-19.1c-1.3-1.3-1.4-1.4-7.2,4.4c-5.3,5.3-5.4,5.4-4,6.7
		c6.9,6.9,13.1,13.1,19.1,19.1c-8.9,8.9-16.1,16.1-19.1,19.1c-1.3,1.3-1.4,1.4,4.4,7.2c5.3,5.3,5.4,5.4,6.7,4
		c6.9-6.9,13.1-13.1,19.1-19.1c6,6,12.3,12.3,19.4,19.4c1,1,1.1,1.1,6.5-4.3c5.7-5.7,5.7-5.9,4.5-7.1c-6.2-6.2-12.8-12.8-19.2-19.2
		c6-6,12.3-12.3,19.4-19.4c1-1.1,1.1-1.1-4.2-6.5c-5.7-5.8-5.9-5.8-7.1-4.5C176.9,83.5,170.3,90.2,163.9,96.6"/>
	<path d="M163.9,177.1c-6.9-6.9-12.3-12.3-15.2-15.2c-1.3-1.3-1.4-1.4-7.2,4.4c-5.3,5.3-5.4,5.4-4,6.7c6.3,6.3,11,11,15.3,15.3
		c-4.3,4.3-9.1,9.1-15.5,15.5c-1,1-1.1,1.1,4.3,6.5c5.7,5.8,5.9,5.8,7.1,4.5c5.4-5.4,10.6-10.6,15.4-15.4c4.3,4.3,9.1,9.1,15.5,15.5
		c1,1,1.1,1.1,6.5-4.3c5.7-5.7,5.7-5.9,4.5-7.1c-5.4-5.4-10.6-10.6-15.4-15.4c6.9-6.9,12.3-12.3,15.2-15.2c1.3-1.3,1.4-1.4-4.4-7.2
		c-5.3-5.3-5.4-5.4-6.7-4C172.9,168.1,168.2,172.8,163.9,177.1"/>
	<path d="M179.2,0.7c-6.3,6.3-11,11-15.3,15.3c-6.9-6.9-12.3-12.3-15.2-15.2c-1.3-1.3-1.4-1.4-7.2,4.4c-5.3,5.3-5.4,5.4-4,6.7
		c6.3,6.3,11,11,15.3,15.3c-4.3,4.3-9.1,9.1-15.5,15.5c-1,1-1.1,1.1,4.3,6.5c5.7,5.7,5.9,5.7,7.1,4.5c5.4-5.4,10.6-10.6,15.4-15.4
		c4.3,4.3,9.1,9.1,15.5,15.5c1,1,1.1,1.1,6.5-4.3c5.7-5.7,5.7-5.9,4.5-7.1C185,37.2,179.8,32,175,27.2C182,20.3,187.3,15,190.3,12
		c1.3-1.3,1.4-1.4-4.4-7.2C180.6-0.5,180.5-0.6,179.2,0.7"/>
	<path class="st0" d="M252.3,72c0-2.4-1.9-7.3-6.5-7.3c-5.4,0-6.6,5.4-6.6,10v65.9c0,4.9,1.2,10,6.6,10c5.1,0,6.5-4.2,6.5-7v-22.9
		c0-2.4,1.6-2.3,9.3-2.3c7.7,0,8.9,0.2,8.9,3.3v22.9c0,14.5-8.4,24.5-24.6,24.5s-25.3-11.2-25.3-24.5V71.3
		c0-13.4,9.6-24.6,25.3-24.6s24.6,11.9,24.6,24.6v23.3c0,1.8-1.4,2.3-9.4,2.3c-5.8,0-8.7,0.4-8.7-1.9V72L252.3,72z"/>
	<path class="st0" d="M279.2,162.3V51.9c0-2.3,0.2-2.4,1.2-3.8c1.1-1.4,2.3-1.4,4-1.4h36.2c2.1,0,2.1,1.4,2.1,8.2
		c0,7.9,0,8.9-2.3,8.9h-17.5c-1.4,0-3.5,0.2-4,0.9c-0.9,1.2-0.9,1.1-0.9,3.3V91c0,1.6-0.3,3.5,1.1,4.5c1.2,0.9,2.4,0.7,3.8,0.7h8.4
		c2.1,0,2.3,1.1,2.3,8.7s0,8.4-2.3,8.4h-7.9c-1.8,0-3.7,0.2-4.4,0.5c-1.6,1.1-1.2,2.8-1.2,5.1v26c0,2.3,0,5.6,0.9,6.1
		c0.9,0.5,3.3,0.7,5.2,0.7h16.6c2.1,0,2.3,0.7,2.3,8.4c0,7.7-0.2,8.7-2.1,8.7h-33.5c-2.8,0-5.8,0.4-7-0.7
		C278.8,167,279.2,164.4,279.2,162.3"/>
	<path class="st0" d="M351.2,102.4c-1.2,0-1.2,3.7-1.2,5.9v57.5c0,2.8-0.5,3.1-9.6,3.1s-8.7-0.4-8.7-3V49.1c0-2.4,0.4-2.4,8-2.4
		c7.7,0,8.4,0.7,9.8,5.6c3.7,14.3,8.7,33,14.2,51.5c0.4,1.8,1.1,4.5,2.1,4.5c1.2,0,1.2-3.3,1.2-5.2V49.8c0-2.8,0.5-3.1,9.3-3.1
		s9.1,0.2,9.1,3v114.3c0,4.5,0.2,5.1-8.7,5.1c-4.5,0-6.5-0.4-7.7-4.7c-5.8-20.3-7.9-29.5-14-51.5
		C353.8,108.8,352.4,102.4,351.2,102.4"/>
	<path class="st0" d="M407.8,64.1c-0.9-0.4-3.1-0.4-5.1-0.4h-6.5c-2.6,0-3.1-1.2-3.1-8.6s0.4-8.6,2.4-8.6h46.1
		c2.1,0,2.3,1.6,2.3,8.2c0,8-0.2,8.9-2.1,8.9h-7.5c-1.9,0-4.2,0-5.1,0.4c-1.6,1.2-1.2,4.2-1.2,6.5v96.6c0,1.6-1.9,1.7-10.1,1.7
		c-7.3,0-8.9,0-8.9-1.7V70.6C409,68.3,409.4,65.3,407.8,64.1"/>
	<path class="st0" d="M480.8,67.1c-1.2-1.4-2.3-2.1-6.3-2.1c-1.6,0-2.8,0-3.5,0.9c-0.4,0.7-0.5,1.4-0.5,2.3v26c0,1.6,0,2.8,0.9,3.5
		c0.7,0.5,1.7,0.4,3.1,0.4c1.6,0,4.4-0.5,6.3-2.6c2.3-2.4,2.4-5.1,2.4-6.8V76.7C483.3,73,483.1,69.7,480.8,67.1 M492.9,168.9
		c-8.4,0-9.1,0.2-9.1-3v-40.2c0-6.1-2.1-11-6.5-11c-6.1,0-6.8-0.2-6.8,2.3v48.6c0,3.3-1.4,3.3-10.1,3.3c-7.2,0-8.6,0-8.6-3.8V52
		c0-1.8,0.2-3.5,0.7-4.4c1.1-1.4,2.3-1.1,4.5-1.1h17.3c7.5,0,15.2,2.1,20.4,7.2c5.2,4.9,7.2,11.9,7.2,19.2v14.9
		c0,5.1-0.7,8.4-3,11.5c-3.1,4.7-8.6,5.8-8.6,6.3c0,0.7,5.6,1.1,8.9,5.4c2.3,3.1,3.1,6.1,3.1,11v44C502.5,169,501.3,169,492.9,168.9
		"/>
	<path class="st0" d="M562.6,144.5c0,14.5-9.3,24.5-25.5,24.5s-25.3-11.5-25.3-24.3V49.6c0-2.8,1.2-3,9.8-3c7,0,8.9,0.4,8.9,3v91
		c0,4.7,0.9,9.8,6.6,9.8s6.6-4.9,6.6-9.8V49.4c0-2.4,0.9-2.8,8.7-2.8c9.1,0,10.1,0.5,10.1,2.6V144.5z"/>
	<path class="st0" d="M582,168.9c-8.6,0-8.4-0.4-8.4-3V49.6c0-3,1.2-2.8,8-2.8c7.5,0,8.7,0.9,10.5,6.5c2.6,8.9,5.2,16.8,7.7,25
		c1.7,6.1,3.7,11.5,4.9,11.5c1.2,0,3-5.1,4.9-11.5c2.8-9.1,4.9-15.9,7.7-25c1.6-5.6,2.8-6.6,9.6-6.6c7.5,0,9.1,0.2,9.1,3v116.2
		c0,2.8,0.2,3.1-9.3,3.1c-8.6,0-9.1-0.4-9.1-3c0-24.5,0-56.1-0.5-69.9c-0.7-1.6-2.3-1.1-2.6,0.7c-2.1,9.8-4.2,17.8-5.9,23.8
		c-0.4,1.8-1.1,2.6-3.8,2.6c-2.8,0-3.3-0.9-3.8-2.4c-1.4-5.4-3.5-14-5.6-23.6c-0.4-1.7-2.4-2.3-3.1-0.9c-0.5,14-0.5,45.1-0.5,69.5
		C591.6,168.6,591.1,169,582,168.9"/>
	<path class="st0" d="M0,166.2V52c0-2.3,0-2.8,1.1-4c1.1-1.4,2-1.4,3.8-1.4h38.3c2.2,0,2.2,1.2,2.2,8.2c0,8-0.2,11.6-2.9,11.6H24.8
		c-1.5,0-3.3,0.2-4,0.7c-1.3,1.2-1.1,2.6-1.1,4.9v19.6c0,1.6-0.2,3.5,1.1,4.5c1.1,0.9,2.5,0.7,4,0.7c3.1,0.2,8.6,0.2,10.2,0.2
		c2.6,0,2.7,2.7,2.7,10.4s0,9.3-2.7,9.3c-1.5,0-6.6-0.2-9.6,0c-1.8,0-3.8,0-4.5,0.5c-1.6,1.1-1.3,3.3-1.3,5.6V166
		c0,3-1.5,2.8-10.8,2.8C1.1,168.8,0,169,0,166.2"/>
	<path class="st0" d="M87.3,71.9c0-2.4-1.8-7.3-6.1-7.3c-5.1,0-6.3,5.4-6.3,10v65.9c0,4.9,1.2,10,6.3,10c4.8,0,6.1-4.2,6.1-7v-23.4
		c0-2.4,1.5-2.3,8.8-2.3c7.3,0,8.4,0.2,8.4,3.3v23.4c0,14.5-7.9,24.5-23.3,24.5s-24-11.2-24-24.5V71.2c0-13.5,9.1-24.7,24-24.7
		s23.3,11.9,23.3,24.7V95c0,1.8-1.3,2.3-8.9,2.3c-5.5,0-8.3,0.4-8.3-1.9V71.9L87.3,71.9z"/>
</g>
<rect y="2.5" width="104.5" height="21.8"/>
<rect x="220.5" y="2.5" width="415.5" height="21.8"/>
<rect y="193.8" width="104.5" height="21.8"/>
<rect x="220.5" y="193.8" width="415.5" height="21.8"/>
</svg>
