<?xml version="1.0" encoding="utf-8"?>
<!-- Generator: Adobe Illustrator 26.1.0, SVG Export Plug-In . SVG Version: 6.00 Build 0)  -->
<svg version="1.1" id="a" xmlns="http://www.w3.org/2000/svg" xmlns:xlink="http://www.w3.org/1999/xlink" x="0px" y="0px"
	 viewBox="0 0 192 219" style="enable-background:new 0 0 192 219;" xml:space="preserve">
<style type="text/css">
	.st0{fill:#E30613;}
</style>
<path class="st0" d="M92.8,97.7c-9-9-16.3-16.3-19.3-19.3c-1.4-1.4-1.4-1.4-7.3,4.5c-5.4,5.4-5.4,5.4-4.1,6.8
	c7,7,13.2,13.2,19.4,19.4c-9,9-16.3,16.3-19.3,19.3c-1.4,1.4-1.4,1.4,4.5,7.3c5.4,5.4,5.4,5.4,6.8,4.1c7-7,13.2-13.2,19.4-19.4
	c6.1,6.1,12.4,12.4,19.6,19.6c1.1,1.1,1.1,1.1,6.6-4.3c5.8-5.8,5.8-6,4.6-7.2c-6.2-6.3-13-13-19.5-19.5c6.1-6.1,12.4-12.4,19.6-19.6
	c1.1-1.1,1.1-1.1-4.3-6.6c-5.8-5.8-6-5.8-7.2-4.6C106,84.5,99.3,91.3,92.8,97.7"/>
<path d="M92.8,179.3c-7-7-12.4-12.4-15.4-15.4c-1.4-1.4-1.4-1.4-7.3,4.5c-5.4,5.4-5.4,5.4-4.1,6.8c6.3,6.3,11.1,11.1,15.5,15.5
	c-4.4,4.4-9.3,9.3-15.7,15.7c-1.1,1.1-1.1,1.1,4.3,6.6c5.8,5.8,6,5.8,7.2,4.6c5.5-5.5,10.7-10.7,15.6-15.6
	c4.4,4.4,9.3,9.3,15.7,15.7c1.1,1.1,1.1,1.1,6.6-4.3c5.8-5.8,5.8-6,4.6-7.2c-5.5-5.5-10.7-10.7-15.6-15.6l15.4-15.4
	c1.4-1.4,1.4-1.4-4.5-7.3c-5.4-5.4-5.4-5.4-6.8-4.1C102,170.2,97.2,175,92.8,179.3"/>
<path d="M108.3,0.7C102,7.1,97.2,11.9,92.8,16.2c-7-7-12.4-12.4-15.4-15.4C76-0.5,76-0.6,70.1,5.3c-5.4,5.4-5.4,5.4-4.1,6.8
	c6.3,6.3,11.1,11.1,15.5,15.5c-4.4,4.4-9.3,9.3-15.7,15.7c-1.1,1.1-1.1,1.1,4.3,6.6c5.8,5.8,6,5.8,7.2,4.6
	C82.7,49,88,43.8,92.8,38.9c4.4,4.4,9.3,9.3,15.7,15.7c1.1,1.1,1.1,1.1,6.6-4.3c5.8-5.8,5.8-6,4.6-7.2c-5.5-5.5-10.7-10.7-15.6-15.6
	c7-7,12.4-12.4,15.4-15.4c1.4-1.4,1.4-1.4-4.5-7.3C109.8-0.5,109.7-0.6,108.3,0.7"/>
<path class="st0" d="M0,167.7V54.4c0-2.3,0-2.8,1.1-4c1.1-1.4,2-1.4,3.8-1.4h37.9c2.2,0,2.2,1.2,2.2,8.1c0,8-0.2,11.5-2.9,11.5H24.6
	c-1.5,0-3.3,0.2-4,0.7c-1.3,1.2-1.1,2.6-1.1,4.9v19.4c0,1.6-0.2,3.5,1.1,4.5c1.1,0.9,2.5,0.7,4,0.7c3.1,0.2,8.5,0.2,10.1,0.2
	c2.5,0,2.7,2.7,2.7,10.3c0,7.6,0,9.2-2.7,9.2c-1.4,0-6.5-0.2-9.6,0c-1.8,0-3.8,0-4.5,0.5c-1.6,1-1.3,3.3-1.3,5.5v42.8
	c0,3-1.5,2.8-10.7,2.8C1.1,170.3,0,170.5,0,167.7"/>
<path class="st0" d="M174.9,74.2c0-2.4-1.8-7.3-6.1-7.3c-5.1,0-6.2,5.4-6.2,9.9v65.4c0,4.9,1.1,9.9,6.2,9.9c4.8,0,6.1-4.2,6.1-6.9
	V122c0-2.4,1.5-2.3,8.7-2.3s8.4,0.2,8.4,3.3v23.2c0,14.4-7.9,24.3-23.1,24.3c-15.2,0-23.8-11.1-23.8-24.3V73.5
	c0-13.4,9-24.5,23.8-24.5c14.8,0,23.1,11.8,23.1,24.5v23.5c0,1.7-1.3,2.3-8.9,2.3c-5.4,0-8.2,0.3-8.2-1.9L174.9,74.2L174.9,74.2z"/>
</svg>
