<?xml version="1.0" encoding="utf-8"?>
<!-- Generator: Adobe Illustrator 26.0.2, SVG Export Plug-In . SVG Version: 6.00 Build 0)  -->
<svg version="1.1" id="Laag_1" xmlns="http://www.w3.org/2000/svg" xmlns:xlink="http://www.w3.org/1999/xlink" x="0px" y="0px"
	 viewBox="0 0 32 31.9" style="enable-background:new 0 0 32 31.9;" xml:space="preserve">
<path id="Path_356" d="M31.6,25l-8.9-9l8.9-8.9c0.8-0.8,0.8-0.8-2.6-4.2c-3.1-3.1-3.1-3.1-3.9-2.4l-8.9,9L6.9,0.3
	C6.3-0.3,6.3-0.3,3.1,2.8C-0.2,6.2-0.2,6.3,0.4,7l9,9l-9.1,9.1c-0.6,0.6-0.6,0.6,2.5,3.8c3.3,3.3,3.4,3.3,4.1,2.7l9-9l8.9,8.9
	c0.8,0.8,0.8,0.8,4.2-2.6C32.3,25.9,32.4,25.8,31.6,25"/>
</svg>
