<?xml version="1.0" encoding="utf-8"?>
<!-- Generator: Adobe Illustrator 26.0.3, SVG Export Plug-In . SVG Version: 6.00 Build 0)  -->
<svg version="1.1" id="Layer_1" xmlns="http://www.w3.org/2000/svg" xmlns:xlink="http://www.w3.org/1999/xlink" x="0px" y="0px"
	 viewBox="0 0 287 67" style="enable-background:new 0 0 287 67;" xml:space="preserve">
<style type="text/css">
	.st0{clip-path:url(#SVGID_00000151514794430105085080000002821513306800625574_);}
	.st1{fill:#FFFFFF;}
	.st2{fill:#D9000D;}
</style>
<g id="Group_442" transform="translate(0 0)">
	<g>
		<defs>
			<rect id="SVGID_1_" width="287" height="66.8"/>
		</defs>
		<clipPath id="SVGID_00000153670461417357459690000010717167971386822789_">
			<use xlink:href="#SVGID_1_"  style="overflow:visible;"/>
		</clipPath>
		
			<g id="Group_442-2" transform="translate(0 0)" style="clip-path:url(#SVGID_00000153670461417357459690000010717167971386822789_);">
			<path id="Path_386" class="st1" d="M0,51.3V16.1c0-0.7,0-0.9,0.3-1.2c0.3-0.4,0.6-0.4,1.2-0.4h11.6c0.7,0,0.7,0.4,0.7,2.5
				c0,2.5-0.1,2.8-0.9,2.8H7.5c-0.4,0-0.8,0-1.2,0.2c-0.4,0.4-0.3,0.8-0.3,1.5v7.4c0,0.5-0.1,1.1,0.3,1.4c0.4,0.2,0.8,0.3,1.2,0.2
				c0.9,0.1,2.6,0.1,3.1,0.1c0.8,0,0.8,0.3,0.8,2.6c0,2.3,0,2.6-0.8,2.6c-0.4,0-2-0.1-2.9,0c-0.5,0-0.9,0-1.4,0.2
				c-0.5,0.3-0.4,1-0.4,1.7v13.6c0,0.9-0.4,0.9-3.2,0.9C0.3,52.2,0,52.2,0,51.3"/>
			<path id="Path_387" class="st1" d="M16.4,52.2c-0.8,0-2.8,0-2.7-0.5c2-14.1,3.5-23.5,5.3-36.5c0.1-0.8,1.7-0.8,2.9-0.8
				c1.4,0,2.9,0.1,3,1c2.1,13.8,3.4,22.2,5.6,36.3c0.1,0.6-1.5,0.5-3,0.5c-1.6,0-2.6,0.1-2.8-0.6c-0.4-3-0.7-5.1-1.1-8
				c-0.1-0.5-0.7-0.4-1.6-0.4c-1,0-1.6-0.1-1.7,0.4c-0.3,3-0.5,5-0.8,8.1C19.4,52.3,18.2,52.2,16.4,52.2 M21.9,39
				c0.7,0,1.3,0.1,1.2-0.4c-0.3-4-0.4-6.3-0.7-10.5c0-0.3-0.1-1.5-0.5-1.5c-0.3,0-0.4,1.3-0.4,1.6c-0.3,4.2-0.5,6.9-0.7,10.4
				C20.7,39,21,39,21.9,39"/>
			<path id="Path_388" class="st1" d="M40.1,31.7c-0.4,0-0.4,1.1-0.4,1.8v17.7c0,0.9-0.2,1-3,1c-2.8,0-2.8-0.1-2.8-0.9V15.2
				c0-0.8,0.1-0.8,2.5-0.8c2.4,0,2.6,0.2,3.1,1.7c1.2,4.4,2.8,10.2,4.5,15.9c0.1,0.5,0.3,1.4,0.7,1.4c0.4,0,0.4-1,0.4-1.6V15.4
				c0-0.9,0.2-1,2.9-1c2.8,0,2.9,0.1,2.9,0.9v35.3c0,1.4,0.1,1.6-2.8,1.6c-1.4,0-2-0.1-2.4-1.5c-1.8-6.3-2.5-9.1-4.4-15.9
				C41,33.7,40.5,31.7,40.1,31.7"/>
			<path id="Path_389" class="st1" d="M65.5,22.3c0-1.2-0.9-2.2-2-2.3c-1.7,0-2.1,1.7-2.1,3.1v20.3c0,1.5,0.4,3.1,2.1,3.1
				c1.1,0,2-0.8,2-1.9c0-0.1,0-0.2,0-0.2v-7.1c0-0.8,0.5-0.7,2.9-0.7c2.3,0,2.8,0.1,2.8,1v7.1c0,4.5-2.6,7.6-7.8,7.6
				c-5,0-8-3.5-8-7.6V22.1c0-4.2,3-7.6,8-7.6c5.2,0,7.8,3.7,7.8,7.6v7.2c0,0.5-0.4,0.7-3,0.7c-1.8,0-2.8,0.1-2.8-0.6V22.3z"/>
			<path id="Path_390" class="st1" d="M80.9,15.4v29.5c0,0.7-0.1,1.6,0.3,1.9c0.5,0.2,1,0.2,1.5,0.2h4.9c0.7,0,0.8,0.3,0.8,2.5
				c0,2.6-0.1,2.8-0.7,2.8H77.1c-0.8,0-1.5,0-1.8-0.3C75,51.5,75,50.7,75,50V15.3c0-0.8,0.3-0.9,2.8-0.9
				C80.6,14.4,80.9,14.5,80.9,15.4"/>
			<path id="Path_391" class="st1" d="M107.4,44.7c0,4.5-2.9,7.6-8,7.6c-5,0-8-3.6-8-7.5V15.4c0-0.9,0.4-0.9,3.1-0.9
				c2.2,0,2.8,0.1,2.8,0.9v28.1c0,1.5,0.3,3,2.1,3c1.8,0,2.1-1.5,2.1-3V15.3c0-0.8,0.3-0.9,2.8-0.9c2.9,0,3.2,0.2,3.2,0.8
				L107.4,44.7z"/>
			<path id="Path_392" class="st1" d="M125.7,49.8c-1.7,1.6-4.1,2.5-6.4,2.4c-1.7,0-4,0.1-5.3,0c-0.8-0.1-1.5,0.1-1.7-0.3
				c-0.3-0.4-0.3-0.5-0.3-1.6V16.1c0-0.7,0-1.1,0.3-1.4c0.3-0.3,0.7-0.3,1.3-0.3h5.5c2.4-0.1,4.7,0.7,6.6,2.3
				c1.5,1.6,2.3,3.7,2.1,5.9v4.6c0.1,1.3-0.3,2.6-1,3.7c-1,1.2-2.5,1.5-2.5,1.7c0,0.2,1.8,0.3,2.9,1.8c0.7,1,1,2.2,0.9,3.3V44
				C128.1,46.2,127.2,48.3,125.7,49.8 M121.1,20.8c-0.4-0.5-1.1-0.7-1.8-0.6c-0.7,0-1.1,0-1.3,0.2c-0.2,0.2-0.2,0.5-0.2,0.8v8
				c0,0.5,0,0.8,0.3,1c0.3,0.2,0.6,0.2,1,0.2c0.7,0,1.5-0.3,2-0.8c0.5-0.6,0.8-1.3,0.8-2.1v-3.7C122,22.7,121.7,21.6,121.1,20.8
				 M119.8,35.5c-1.8,0-2,0.1-2,1v8.8c0,0.5,0,1.1,0.4,1.1c0.4,0.1,0.7,0.1,1.1,0.1c0.7,0,1.5-0.2,2-0.8c0.6-0.6,0.9-1.5,0.8-2.4
				v-4.5C122.1,36.9,121.4,35.5,119.8,35.5"/>
			<path id="Path_393" class="st1" d="M168.5,22.2c0-0.8-0.6-2.3-2-2.3c-1.7,0-2.1,1.7-2.1,3.1v20.3c0,1.5,0.4,3.1,2.1,3.1
				c1.1,0,2-0.8,2-1.9c0-0.1,0-0.1,0-0.2v-7.1c0-0.8,0.5-0.7,2.9-0.7c2.3,0,2.8,0.1,2.8,1v7.1c0,4.5-2.6,7.6-7.6,7.6
				c-4.1,0.2-7.6-2.9-7.8-7c0-0.2,0-0.4,0-0.6V22c-0.1-4.1,3.1-7.5,7.2-7.6c0.2,0,0.4,0,0.6,0c5.1,0,7.6,3.7,7.6,7.6v7.2
				c0,0.5-0.4,0.7-2.9,0.7c-1.8,0-2.7,0.1-2.7-0.6L168.5,22.2z"/>
			<path id="Path_394" class="st1" d="M176.8,50.1V16c-0.1-0.4,0.1-0.9,0.4-1.2c0.3-0.4,0.7-0.4,1.2-0.4h11.2c0.6,0,0.6,0.4,0.6,2.5
				c0,2.4,0,2.8-0.7,2.8h-5.4c-0.4,0-1.1,0.1-1.2,0.3c-0.3,0.4-0.3,0.3-0.3,1v7.1c0,0.5-0.1,1.1,0.3,1.4c0.4,0.2,0.8,0.3,1.2,0.2
				h2.6c0.6,0,0.7,0.3,0.7,2.7c0,2.3,0,2.6-0.7,2.6h-2.4c-0.5,0-0.9,0-1.3,0.2c-0.5,0.3-0.4,0.9-0.4,1.6v8c0,0.7,0,1.7,0.3,1.9
				c0.5,0.2,1.1,0.2,1.6,0.2h5.1c0.6,0,0.7,0.2,0.7,2.6c0,2.5-0.1,2.7-0.6,2.7h-10.4c-0.9,0-1.8,0.1-2.2-0.2
				C176.7,51.6,176.8,50.8,176.8,50.1"/>
			<path id="Path_395" class="st1" d="M199,31.6c-0.4,0-0.4,1.1-0.4,1.8v17.7c0,0.9-0.2,1-3,1c-2.7,0-2.7-0.1-2.7-0.9V15.2
				c0-0.8,0.1-0.8,2.5-0.8c2.3,0,2.6,0.2,3,1.7c1.1,4.4,2.7,10.2,4.4,15.9c0.1,0.5,0.3,1.4,0.6,1.4c0.4,0,0.4-1,0.4-1.6V15.4
				c0-0.9,0.2-1,2.9-1c2.8,0,2.8,0.1,2.8,0.9v35.3c0,1.4,0.1,1.6-2.7,1.6c-1.4,0-2-0.1-2.4-1.5c-1.8-6.3-2.4-9.1-4.3-15.9
				C199.8,33.6,199.4,31.6,199,31.6"/>
			<path id="Path_396" class="st1" d="M216.5,19.8c-0.5-0.1-1-0.1-1.6-0.1h-2c-0.8,0-1-0.4-1-2.6s0.1-2.6,0.8-2.6H227
				c0.6,0,0.7,0.5,0.7,2.5c0,2.5-0.1,2.8-0.6,2.8h-2.3c-0.5,0-1.1,0-1.6,0.1c-0.5,0.4-0.4,1.3-0.4,2v29.8c0,0.5-0.6,0.5-3.1,0.5
				c-2.3,0-2.8,0-2.8-0.5V21.8C216.9,21.1,217,20.2,216.5,19.8"/>
			<path id="Path_397" class="st1" d="M242.8,52.2c-2.6,0-2.8,0.1-2.8-0.9V38.8c0-1.9-0.6-3.4-2-3.4c-1.9,0-2.1-0.1-2.1,0.7v15
				c0,1-0.4,1-3.1,1c-2.2,0-2.6,0-2.6-1.2V16.1c0-0.5,0-0.9,0.2-1.3c0.3-0.4,0.7-0.3,1.4-0.3h5.3c2.3-0.1,4.6,0.7,6.3,2.2
				c1.5,1.6,2.3,3.7,2.2,5.9v4.6c0.1,1.3-0.2,2.5-0.9,3.6c-1,1.5-2.6,1.8-2.6,1.9c0,0.2,1.7,0.3,2.8,1.7c0.7,1,1.1,2.2,1,3.4v13.6
				C245.8,52.2,245.4,52.2,242.8,52.2 M239.1,20.7c-0.4-0.4-0.7-0.6-1.9-0.6c-0.5,0-0.9,0-1.1,0.3c-0.1,0.2-0.2,0.5-0.2,0.7v8
				c0,0.5,0,0.9,0.3,1.1c0.2,0.2,0.5,0.1,1,0.1c0.7,0,1.4-0.3,1.9-0.8c0.5-0.6,0.8-1.3,0.8-2.1v-3.7
				C239.9,22.6,239.7,21.6,239.1,20.7"/>
			<path id="Path_398" class="st1" d="M264.3,44.6c0,4.5-2.9,7.6-7.9,7.6c-4.1,0.2-7.6-2.9-7.8-7c0-0.2,0-0.3,0-0.5V15.3
				c0-0.9,0.4-0.9,3-0.9c2.2,0,2.8,0.1,2.8,0.9v28.1c0,1.5,0.3,3,2,3c1.7,0,2-1.5,2-3V15.3c0-0.8,0.3-0.9,2.7-0.9
				c2.8,0,3.1,0.2,3.1,0.8L264.3,44.6z"/>
			<path id="Path_399" class="st1" d="M270.3,52.2c-2.6,0-2.6-0.1-2.6-0.9V15.3c0-0.9,0.4-0.9,2.5-0.9c2.3,0,2.7,0.3,3.2,2
				c0.8,2.8,1.6,5.2,2.4,7.7c0.5,1.9,1.1,3.6,1.5,3.6s0.9-1.6,1.5-3.6l2.4-7.7c0.5-1.7,0.9-2,3-2c2.3,0,2.8,0.1,2.8,0.9v35.9
				c0,0.9,0.1,1-2.9,1c-2.6,0-2.8-0.1-2.8-0.9c0-7.6,0-17.3-0.2-21.6c-0.2-0.5-0.7-0.3-0.8,0.2c-0.6,3-1.3,5.5-1.8,7.3
				c-0.1,0.5-0.3,0.8-1.2,0.8s-1-0.3-1.2-0.8c-0.4-1.7-1.1-4.3-1.7-7.3c-0.1-0.5-0.8-0.7-1-0.3c-0.2,4.3-0.2,13.9-0.2,21.5
				C273.3,52.1,273.1,52.2,270.3,52.2"/>
			<path id="Path_400" class="st1" d="M143.1,29.9l-5.9-5.9c-0.4-0.4-0.4-0.4-2.2,1.4c-1.6,1.6-1.7,1.7-1.2,2.1
				c2.1,2.1,4.1,4.1,5.9,5.9l-5.9,5.9c-0.4,0.4-0.4,0.4,1.4,2.2c1.6,1.6,1.7,1.7,2.1,1.2l5.9-5.9l6,6c0.3,0.3,0.3,0.3,2-1.3
				c1.8-1.8,1.8-1.8,1.4-2.2l-6-6l6-6c0.3-0.3,0.3-0.3-1.3-2c-1.8-1.8-1.8-1.8-2.2-1.4L143.1,29.9"/>
			<path id="Path_401" class="st2" d="M143.1,54.8l-4.7-4.7c-0.4-0.4-0.4-0.4-2.2,1.4c-1.6,1.6-1.7,1.7-1.2,2.1l4.7,4.7l-4.8,4.8
				c-0.3,0.3-0.3,0.3,1.3,2c1.8,1.8,1.8,1.8,2.2,1.4c1.7-1.7,3.3-3.3,4.8-4.8c1.3,1.3,2.8,2.8,4.8,4.8c0.3,0.3,0.3,0.3,2-1.3
				c1.8-1.8,1.8-1.8,1.4-2.2l-4.8-4.8l4.7-4.7c0.4-0.4,0.4-0.4-1.4-2.2c-1.6-1.6-1.7-1.7-2.1-1.2C145.9,52,144.5,53.5,143.1,54.8"/>
			<path id="Path_402" class="st2" d="M147.9,0.2L143.1,5l-4.7-4.7c-0.4-0.4-0.4-0.4-2.2,1.4c-1.6,1.6-1.7,1.7-1.2,2.1l4.7,4.7
				c-1.3,1.3-2.8,2.8-4.8,4.8c-0.3,0.3-0.3,0.3,1.3,2c1.8,1.8,1.8,1.8,2.2,1.4l4.8-4.8c1.3,1.3,2.8,2.8,4.8,4.8
				c0.3,0.3,0.3,0.3,2-1.3c1.8-1.8,1.8-1.8,1.4-2.2l-4.8-4.8l4.7-4.7c0.4-0.4,0.4-0.4-1.4-2.2C148.3-0.2,148.3-0.2,147.9,0.2"/>
		</g>
	</g>
</g>
</svg>
