<?xml version="1.0" encoding="utf-8"?>
<!-- Generator: Adobe Illustrator 26.0.2, SVG Export Plug-In . SVG Version: 6.00 Build 0)  -->
<svg version="1.1" id="Laag_1" xmlns="http://www.w3.org/2000/svg" xmlns:xlink="http://www.w3.org/1999/xlink" x="0px" y="0px"
	 viewBox="0 0 64 64.1" style="enable-background:new 0 0 64 64.1;" xml:space="preserve">
<style type="text/css">
	.st0{fill-rule:evenodd;clip-rule:evenodd;fill:#FFFFFF;}
</style>
<path id="Path_165" class="st0" d="M44.1,0H19.9C8.9,0,0,9,0,20v24.2c0,11,8.9,19.9,19.9,19.9h24.2c11,0,19.9-8.9,19.9-19.9V20
	C64,9,55.1,0,44.1,0L44.1,0z M51.4,15.1c0-1.4-1.1-2.5-2.4-2.5s-2.5,1.1-2.5,2.4c0,0,0,0,0,0c0,1.4,1.1,2.5,2.4,2.5
	C50.3,17.6,51.4,16.5,51.4,15.1C51.4,15.2,51.4,15.1,51.4,15.1z M32,16.2c-8.8,0-15.8,7.2-15.8,15.9c0,8.7,7.1,15.8,15.8,15.8
	c4.2,0,8.2-1.7,11.2-4.7c6.2-6.1,6.3-16.1,0.1-22.3c0,0-0.1-0.1-0.1-0.1C40.2,17.8,36.2,16.2,32,16.2L32,16.2z M32,42.4
	c-5.8,0-10.5-4.6-10.5-10.4c0-5.8,4.6-10.5,10.4-10.5s10.5,4.6,10.5,10.4c0,2.8-1.1,5.5-3,7.4C37.4,41.3,34.8,42.4,32,42.4L32,42.4z
	 M58.5,44.2c0,3.8-1.5,7.5-4.3,10.2c-2.7,2.7-6.3,4.2-10.2,4.3H19.9c-3.8,0-7.5-1.6-10.2-4.3C7,51.6,5.5,48,5.5,44.2V20
	c0-3.8,1.5-7.5,4.2-10.2c2.7-2.7,6.4-4.2,10.2-4.3h24.2c3.8,0,7.5,1.5,10.2,4.3c2.8,2.7,4.3,6.4,4.3,10.2L58.5,44.2z"/>
</svg>
