<?xml version="1.0" encoding="utf-8"?>
<!-- Generator: Adobe Illustrator 26.0.2, SVG Export Plug-In . SVG Version: 6.00 Build 0)  -->
<svg version="1.1" id="Laag_1" xmlns="http://www.w3.org/2000/svg" xmlns:xlink="http://www.w3.org/1999/xlink" x="0px" y="0px"
	 viewBox="0 0 64 58.7" style="enable-background:new 0 0 64 58.7;" xml:space="preserve">
<style type="text/css">
	.st0{fill:#FFFFFF;}
</style>
<path id="ic_link_24px" class="st0" d="M9.3,47.7C5.5,42.9,6.2,35.9,11,32l11.2-9.1l-4.3-5.3L6.7,26.7C-1.1,32.9-2.2,44.3,4,52
	c6.3,7.7,17.6,8.9,25.3,2.7l11.2-9.1l-4.3-5.3L25,49.3C20.2,53.2,13.2,52.5,9.3,47.7z M23.1,41.2l22.4-18.1l-4.5-5.6L18.5,35.6
	L23.1,41.2z M34.7,4l-11.2,9.1l4.3,5.3L39,9.3c4.8-3.8,11.9-3,15.7,1.9c3.7,4.7,3,11.6-1.6,15.5l-11.2,9.1l4.3,5.3L57.3,32
	c7.7-6.3,8.9-17.6,2.7-25.3C53.7-1.1,42.4-2.2,34.7,4z"/>
</svg>
