<?xml version="1.0" encoding="utf-8"?>
<!-- Generator: Adobe Illustrator 26.3.1, SVG Export Plug-In . SVG Version: 6.00 Build 0)  -->
<svg version="1.1" id="Laag_1" xmlns="http://www.w3.org/2000/svg" xmlns:xlink="http://www.w3.org/1999/xlink" x="0px" y="0px"
	 viewBox="0 0 321.5 74.8" style="enable-background:new 0 0 321.5 74.8;" xml:space="preserve">
<style type="text/css">
	.st0{fill:#E30613;}
	.st1{fill:#1D1D1B;}
</style>
<path class="st0" d="M0,57.5V18.1c0-0.8,0-1,0.4-1.4c0.4-0.5,0.7-0.5,1.3-0.5h13c0.7,0,0.7,0.4,0.7,2.8c0,2.8-0.1,3.1-1,3.1h-6
	c-0.5,0-1.1,0.1-1.4,0.2c-0.4,0.4-0.4,0.9-0.4,1.7v8.3c0,0.5-0.1,1.2,0.4,1.6c0.4,0.3,0.9,0.2,1.4,0.2c1,0.1,2.9,0.1,3.5,0.1
	c0.9,0,0.9,0.3,0.9,3c0,2.6,0,2.9-0.9,2.9c-0.5,0-2.2-0.1-3.3,0c-0.6,0-1.3,0-1.5,0.2c-0.6,0.4-0.4,1.1-0.4,1.9v15.2
	c0,1-0.5,1-3.6,1C0.4,58.4,0,58.5,0,57.5"/>
<path class="st0" d="M18.4,58.5c-0.9,0-3.1,0-3-0.5c2.3-15.8,3.9-26.3,5.9-40.9c0.1-0.8,1.9-0.9,3.2-0.9c1.5,0,3.2,0.1,3.3,1.1
	c2.4,15.5,3.8,24.9,6.2,40.7c0.1,0.7-1.7,0.6-3.4,0.6c-1.8,0-3,0.1-3.1-0.7c-0.5-3.4-0.7-5.7-1.2-9c-0.1-0.6-0.8-0.5-1.8-0.5
	c-1.2,0-1.8-0.1-1.9,0.5c-0.4,3.4-0.6,5.6-0.9,9.1C21.7,58.5,20.4,58.5,18.4,58.5 M24.5,43.7c0.8,0,1.4,0.1,1.4-0.4
	c-0.3-4.5-0.5-7-0.8-11.8c0-0.3-0.1-1.6-0.6-1.6c-0.3,0-0.4,1.5-0.4,1.8c-0.3,4.7-0.6,7.7-0.8,11.6C23.2,43.7,23.6,43.7,24.5,43.7"
	/>
<path class="st0" d="M45,35.5c-0.4,0-0.4,1.3-0.4,2.1v19.9c0,1-0.2,1.1-3.4,1.1c-3.1,0-3.1-0.1-3.1-1V17c0-0.8,0.1-0.8,2.8-0.8
	c2.7,0,3,0.2,3.5,1.9c1.3,5,3.1,11.4,5,17.8c0.1,0.6,0.4,1.6,0.7,1.6c0.4,0,0.4-1.1,0.4-1.8V17.3c0-1,0.2-1.1,3.3-1.1
	c3.1,0,3.2,0.1,3.2,1v39.5c0,1.6,0.1,1.8-3.1,1.8c-1.6,0-2.3-0.1-2.7-1.6c-2-7-2.8-10.2-4.9-17.8C45.9,37.7,45.4,35.5,45,35.5"/>
<path class="st0" d="M73.3,24.9c0-0.8-0.7-2.5-2.3-2.5c-1.9,0-2.3,1.9-2.3,3.4v22.8c0,1.7,0.4,3.4,2.3,3.4c1.8,0,2.3-1.5,2.3-2.4
	v-7.9c0-0.8,0.6-0.8,3.3-0.8c2.6,0,3.1,0.1,3.1,1.1V50c0,5-3,8.5-8.7,8.5c-5.6,0-8.9-3.9-8.9-8.5V24.7c0-4.7,3.4-8.5,8.9-8.5
	c5.8,0,8.7,4.1,8.7,8.5v8c0,0.6-0.5,0.8-3.3,0.8c-2,0-3.1,0.1-3.1-0.7V24.9z"/>
<path class="st0" d="M90.7,17.2v33c0,0.8-0.1,1.8,0.4,2.1c0.3,0.2,1,0.2,1.7,0.2h5.5c0.8,0,0.9,0.3,0.9,2.8c0,2.9-0.1,3.1-0.8,3.1
	H86.4c-0.9,0-1.7,0-2-0.4c-0.4-0.4-0.3-1.3-0.3-2.1V17.2c0-0.8,0.3-1,3.1-1C90.3,16.2,90.7,16.2,90.7,17.2"/>
<path class="st0" d="M120.3,50c0,5-3.3,8.5-9,8.5c-5.6,0-8.9-4-8.9-8.4V17.2c0-1,0.4-1,3.5-1c2.5,0,3.1,0.1,3.1,1v31.5
	c0,1.6,0.3,3.4,2.3,3.4c2,0,2.3-1.7,2.3-3.4V17.2c0-0.8,0.3-1,3.1-1c3.2,0,3.6,0.2,3.6,0.9V50z"/>
<path class="st0" d="M140.8,55.8c-2,2.1-4.8,2.7-7.2,2.7c-1.9,0-4.5,0.1-6,0c-0.9-0.1-1.7,0.1-1.9-0.3c-0.3-0.4-0.4-0.5-0.4-1.8
	V18.1c0-0.8,0-1.3,0.4-1.6c0.4-0.4,0.8-0.3,1.5-0.3h6.1c2.7,0,5.5,0.8,7.3,2.5c1.7,1.7,2.4,4.1,2.4,6.6v5.1c0,1.9-0.4,3-1.2,4.1
	c-1.1,1.4-2.8,1.7-2.8,1.9c0,0.2,2,0.4,3.3,2.1c0.7,1.1,1,2.1,1,3.7v7C143.4,51.5,142.9,53.6,140.8,55.8 M135.6,23.3
	c-0.4-0.5-0.9-0.7-2-0.7c-0.7,0-1.2,0-1.4,0.2c-0.2,0.2-0.2,0.5-0.2,0.8v9c0,0.5,0,0.9,0.3,1.1c0.3,0.2,0.6,0.2,1.1,0.2
	c0.7,0,1.5-0.2,2.2-0.9c0.8-0.8,0.9-1.7,0.9-2.4v-4.1C136.5,25.3,136.5,24.2,135.6,23.3 M134.2,39.8c-2,0-2.2,0.1-2.2,1.1v9.9
	c0,0.5,0,1.2,0.4,1.3c0.3,0.1,0.6,0.1,1.2,0.1c0.6,0,1.5-0.1,2.2-0.8c0.8-0.8,0.9-1.6,0.9-2.7v-5.1C136.8,41.3,136,39.8,134.2,39.8"
	/>
<path class="st0" d="M188.8,24.9c0-0.8-0.7-2.5-2.2-2.5c-1.9,0-2.3,1.9-2.3,3.4v22.8c0,1.7,0.4,3.4,2.3,3.4c1.8,0,2.2-1.5,2.2-2.4
	v-7.9c0-0.8,0.5-0.8,3.2-0.8c2.5,0,3.1,0.1,3.1,1.1V50c0,5-2.9,8.5-8.5,8.5c-5.4,0-8.8-3.9-8.8-8.5V24.7c0-4.7,3.3-8.5,8.8-8.5
	c5.7,0,8.5,4.1,8.5,8.5v8c0,0.6-0.5,0.8-3.3,0.8c-2,0-3,0.1-3-0.7V24.9z"/>
<path class="st0" d="M198.1,56.1V18c0-0.8,0.1-0.8,0.4-1.3c0.4-0.5,0.8-0.5,1.4-0.5h12.5c0.7,0,0.7,0.5,0.7,2.8c0,2.7,0,3.1-0.8,3.1
	h-6c-0.5,0-1.2,0.1-1.4,0.3c-0.3,0.4-0.3,0.4-0.3,1.1v8c0,0.5-0.1,1.2,0.4,1.6c0.4,0.3,0.8,0.2,1.3,0.2h2.9c0.7,0,0.8,0.4,0.8,3
	c0,2.5,0,2.9-0.8,2.9h-2.7c-0.6,0-1.3,0.1-1.5,0.2c-0.5,0.4-0.4,1-0.4,1.8v9c0,0.8,0,1.9,0.3,2.1c0.3,0.2,1.1,0.2,1.8,0.2h5.7
	c0.7,0,0.8,0.2,0.8,2.9c0,2.8-0.1,3-0.7,3h-11.6c-1,0-2,0.1-2.4-0.2C198,57.8,198.1,56.9,198.1,56.1"/>
<path class="st0" d="M223,35.4c-0.4,0-0.4,1.3-0.4,2.1v19.9c0,1-0.2,1.1-3.3,1.1c-3,0-3-0.1-3-1V17c0-0.8,0.1-0.8,2.8-0.8
	c2.6,0,2.9,0.2,3.4,1.9c1.3,5,3,11.4,4.9,17.8c0.1,0.6,0.4,1.6,0.7,1.6c0.4,0,0.4-1.1,0.4-1.8V17.2c0-1,0.2-1.1,3.2-1.1
	c3.1,0,3.1,0.1,3.1,1v39.5c0,1.6,0.1,1.8-3,1.8c-1.6,0-2.2-0.1-2.7-1.6c-2-7-2.7-10.2-4.8-17.8C223.9,37.7,223.4,35.4,223,35.4"/>
<path class="st0" d="M242.6,22.2c-0.3-0.1-1.1-0.1-1.8-0.1h-2.2c-0.9,0-1.1-0.4-1.1-3c0-2.5,0.1-3,0.8-3h16c0.7,0,0.8,0.5,0.8,2.8
	c0,2.8-0.1,3.1-0.7,3.1h-2.6c-0.7,0-1.5,0-1.8,0.1c-0.5,0.4-0.4,1.5-0.4,2.2v33.4c0,0.5-0.7,0.6-3.5,0.6c-2.5,0-3.1,0-3.1-0.6V24.4
	C243,23.6,243.1,22.6,242.6,22.2"/>
<path class="st0" d="M272,58.4c-2.9,0-3.1,0.1-3.1-1V43.5c0-2.1-0.7-3.8-2.2-3.8c-2.1,0-2.4-0.1-2.4,0.8v16.8c0,1.1-0.5,1.1-3.5,1.1
	c-2.5,0-3,0-3-1.3V18c0-0.6,0.1-1.2,0.2-1.5c0.4-0.5,0.8-0.4,1.6-0.4h6c2.6,0,5.3,0.7,7.1,2.5c1.8,1.7,2.5,4.1,2.5,6.6v5.1
	c0,1.8-0.2,2.9-1,4c-1.1,1.6-3,2-3,2.2c0,0.2,1.9,0.4,3.1,1.9c0.8,1.1,1.1,2.1,1.1,3.8v15.2C275.3,58.4,274.9,58.4,272,58.4
	 M267.8,23.2c-0.4-0.5-0.8-0.7-2.2-0.7c-0.5,0-1,0-1.2,0.3c-0.1,0.2-0.2,0.5-0.2,0.8v9c0,0.5,0,1,0.3,1.2c0.2,0.2,0.6,0.1,1.1,0.1
	c0.5,0,1.5-0.2,2.2-0.9c0.8-0.8,0.8-1.8,0.8-2.4v-4.1C268.7,25.3,268.6,24.1,267.8,23.2"/>
<path class="st0" d="M296.1,50c0,5-3.2,8.5-8.8,8.5c-5.5,0-8.8-4-8.8-8.4V17.2c0-1,0.4-1,3.4-1c2.4,0,3.1,0.1,3.1,1v31.5
	c0,1.6,0.3,3.4,2.3,3.4c1.9,0,2.3-1.7,2.3-3.4V17.1c0-0.8,0.3-1,3-1c3.1,0,3.5,0.2,3.5,0.9V50z"/>
<path class="st0" d="M302.8,58.4c-3,0-2.9-0.1-2.9-1V17.2c0-1,0.4-1,2.8-1c2.6,0,3,0.3,3.6,2.2c0.9,3.1,1.8,5.8,2.7,8.6
	c0.6,2.1,1.3,4,1.7,4c0.4,0,1-1.8,1.7-4c1-3.1,1.7-5.5,2.7-8.6c0.5-1.9,1-2.3,3.3-2.3c2.6,0,3.1,0.1,3.1,1v40.2c0,1,0.1,1.1-3.2,1.1
	c-3,0-3.1-0.1-3.1-1c0-8.5,0-19.4-0.2-24.2c-0.2-0.5-0.8-0.4-0.9,0.2c-0.7,3.4-1.5,6.2-2.1,8.2c-0.1,0.6-0.4,0.9-1.3,0.9
	s-1.1-0.3-1.3-0.8c-0.5-1.9-1.2-4.8-1.9-8.2c-0.1-0.6-0.8-0.8-1.1-0.3c-0.2,4.8-0.2,15.6-0.2,24C306.1,58.3,305.9,58.4,302.8,58.4"
	/>
<path class="st0" d="M160.3,33.5c-3.1-3.1-5.6-5.6-6.6-6.6c-0.5-0.5-0.5-0.5-2.5,1.5c-1.8,1.8-1.9,1.9-1.4,2.3
	c2.4,2.4,4.5,4.5,6.6,6.6c-3.1,3.1-5.6,5.6-6.6,6.6c-0.5,0.5-0.5,0.5,1.5,2.5c1.8,1.8,1.9,1.9,2.3,1.4c2.4-2.4,4.5-4.5,6.6-6.6
	c2.1,2.1,4.3,4.3,6.7,6.7c0.4,0.4,0.4,0.4,2.3-1.5c2-2,2-2,1.6-2.5c-2.1-2.1-4.4-4.4-6.7-6.7c2.1-2.1,4.3-4.3,6.7-6.7
	c0.4-0.4,0.4-0.4-1.5-2.3c-2-2-2-2-2.5-1.6C164.9,29,162.6,31.3,160.3,33.5"/>
<path class="st1" d="M160.3,61.4c-2.4-2.4-4.3-4.3-5.3-5.3c-0.5-0.5-0.5-0.5-2.5,1.5c-1.8,1.8-1.9,1.9-1.4,2.3
	c2.2,2.2,3.8,3.8,5.3,5.3c-1.5,1.5-3.2,3.2-5.4,5.4c-0.4,0.4-0.4,0.4,1.5,2.3c2,2,2,2,2.5,1.6c1.9-1.9,3.7-3.7,5.3-5.3
	c1.5,1.5,3.2,3.2,5.4,5.4c0.4,0.4,0.4,0.4,2.3-1.5c2-2,2-2,1.6-2.5c-1.9-1.9-3.7-3.7-5.3-5.3c2.4-2.4,4.3-4.3,5.3-5.3
	c0.5-0.5,0.5-0.5-1.5-2.5c-1.8-1.8-1.9-1.9-2.3-1.4C163.5,58.3,161.8,59.9,160.3,61.4"/>
<path class="st1" d="M165.7,0.3c-2.2,2.2-3.8,3.8-5.3,5.3c-2.4-2.4-4.3-4.3-5.3-5.3c-0.5-0.5-0.5-0.5-2.5,1.5
	c-1.8,1.8-1.9,1.9-1.4,2.3c2.2,2.2,3.8,3.8,5.3,5.3c-1.5,1.5-3.2,3.2-5.4,5.4c-0.4,0.4-0.4,0.4,1.5,2.3c2,2,2,2,2.5,1.6
	c1.9-1.9,3.7-3.7,5.3-5.3c1.5,1.5,3.2,3.2,5.4,5.4c0.4,0.4,0.4,0.4,2.3-1.5c2-2,2-2,1.6-2.5c-1.9-1.9-3.7-3.7-5.3-5.3
	c2.4-2.4,4.3-4.3,5.3-5.3c0.5-0.5,0.5-0.5-1.5-2.5C166.1-0.2,166.1-0.2,165.7,0.3"/>
</svg>
