<?xml version="1.0" encoding="utf-8"?>
<!-- Generator: Adobe Illustrator 26.0.3, SVG Export Plug-In . SVG Version: 6.00 Build 0)  -->
<svg version="1.1" id="Layer_1" xmlns="http://www.w3.org/2000/svg" xmlns:xlink="http://www.w3.org/1999/xlink" x="0px" y="0px"
	 viewBox="0 0 69 101" style="enable-background:new 0 0 69 101;" xml:space="preserve">
<style type="text/css">
	.st0{fill:#E30916;}
	.st1{fill:#FFFFFF;}
</style>
<g id="Group_419" transform="translate(-67.183 -2072.609)">
	<path id="Path_108" class="st0" d="M126.7,2100.4v-9.5h-9.4v-8.9h-9.7v-9.5H95.7v9.5H86v8.9h-9.4v9.5h-9.4v30.6
		c0.1,12.7,5,22.8,14.7,30c4.3,3.2,8.8,6,13.4,8.6l6.4,3.3l6.4-3.3l0,0c4.6-2.5,9.1-5.4,13.4-8.6c9.7-7.2,14.6-17.4,14.7-30.1v-30.5
		H126.7z"/>
	<path id="Path_109" class="st1" d="M101.7,2123.4l-5.3-5.3c-0.4-0.4-0.4-0.4-2,1.2c-1.5,1.5-1.5,1.5-1.1,1.9l5.3,5.3l-5.3,5.3
		c-0.4,0.4-0.4,0.4,1.2,2c1.5,1.5,1.5,1.5,1.9,1.1l5.3-5.3l5.4,5.4c0.3,0.3,0.3,0.3,1.8-1.2c1.6-1.6,1.6-1.6,1.3-2l-5.3-5.3l5.4-5.4
		c0.3-0.3,0.3-0.3-1.2-1.8c-1.6-1.6-1.6-1.6-2-1.3L101.7,2123.4"/>
	<path id="Path_110" d="M101.7,2145.6l-4.2-4.2c-0.4-0.4-0.4-0.4-2,1.2c-1.5,1.5-1.5,1.5-1.1,1.9l4.2,4.2l-4.3,4.3
		c-0.3,0.3-0.3,0.3,1.2,1.8c1.6,1.6,1.6,1.6,2,1.3l4.2-4.2l4.3,4.3c0.3,0.3,0.3,0.3,1.8-1.2c1.6-1.6,1.6-1.6,1.3-2l-4.2-4.2l4.2-4.2
		c0.4-0.4,0.4-0.4-1.2-2c-1.5-1.5-1.5-1.5-1.9-1.1L101.7,2145.6"/>
	<path id="Path_111" d="M105.9,2096.9l-4.2,4.2l-4.2-4.2c-0.4-0.4-0.4-0.4-2,1.2c-1.5,1.5-1.5,1.5-1.1,1.9l4.2,4.2l-4.3,4.3
		c-0.3,0.3-0.3,0.3,1.2,1.8c1.6,1.6,1.6,1.6,2,1.3l4.2-4.2l4.3,4.3c0.3,0.3,0.3,0.3,1.8-1.2c1.6-1.6,1.6-1.6,1.3-2l-4.2-4.2l4.2-4.2
		c0.4-0.4,0.4-0.4-1.2-2C106.3,2096.6,106.3,2096.5,105.9,2096.9"/>
	<path id="Path_112" class="st1" d="M76.3,2142.5v-30.9c0-0.6,0-0.8,0.3-1.1c0.3-0.4,0.5-0.4,1-0.4H88c0.6,0,0.6,0.3,0.6,2.2
		c0,2.2,0,3.1-0.8,3.1h-4.8c-0.4,0-0.7,0-1.1,0.2c-0.3,0.3-0.3,0.7-0.3,1.3v5.3c0,0.4,0,0.9,0.3,1.2c0.3,0.2,0.7,0.3,1.1,0.2
		c0.8,0,2.3,0,2.8,0c0.7,0,0.7,0.7,0.7,2.8c0,2,0,2.5-0.7,2.5c-0.4,0-1.8,0-2.6,0c-0.4,0-0.8,0-1.2,0.1c-0.4,0.3-0.3,0.9-0.3,1.5
		v11.7c0,0.8-0.4,0.8-2.9,0.8C76.6,2143.2,76.3,2143.2,76.3,2142.5"/>
	<path id="Path_113" class="st1" d="M124.1,2117c0-0.7-0.5-2-1.7-2c-1.4,0-1.7,1.5-1.7,2.7v17.8c0,1.3,0.3,2.7,1.7,2.7
		c0.9,0,1.7-0.8,1.7-1.7c0-0.1,0-0.1,0-0.2v-6.3c0-0.7,0.4-0.6,2.4-0.6c1.9,0,2.3,0,2.3,0.9v6.3c0,3.9-2.1,6.6-6.3,6.6
		c-3.5,0.1-6.4-2.7-6.5-6.2c0-0.2,0-0.3,0-0.5v-19.8c-0.2-3.5,2.5-6.5,6-6.7c0.2,0,0.3,0,0.5,0c4.2,0,6.3,3.2,6.3,6.7v6.4
		c0,0.5-0.4,0.6-2.4,0.6c-1.5,0-2.2,0.1-2.2-0.5L124.1,2117z"/>
</g>
</svg>
