<?xml version="1.0" encoding="utf-8"?>
<!-- Generator: Adobe Illustrator 26.0.2, SVG Export Plug-In . SVG Version: 6.00 Build 0)  -->
<svg version="1.1" id="Laag_1" xmlns="http://www.w3.org/2000/svg" xmlns:xlink="http://www.w3.org/1999/xlink" x="0px" y="0px"
	 viewBox="0 0 64 52.4" style="enable-background:new 0 0 64 52.4;" xml:space="preserve">
<style type="text/css">
	.st0{fill:#E30613;}
</style>
<path id="Shape" class="st0" d="M8.7,0h46.5C60.1,0,64,3.9,64,8.7v34.9c0,4.8-3.9,8.7-8.7,8.7H8.7c-4.8,0-8.7-3.9-8.7-8.7V8.7
	C0,3.9,3.9,0,8.7,0z M55.3,46.5c1.6,0,2.9-1.3,2.9-2.9V8.7c0-1.6-1.3-2.9-2.9-2.9H8.7c-1.6,0-2.9,1.3-2.9,2.9v34.9
	c0,1.6,1.3,2.9,2.9,2.9L55.3,46.5z"/>
<path id="Shape-2" class="st0" d="M32,32c-0.6,0-1.2-0.2-1.7-0.5L1.2,11.1C-0.1,10.2-0.4,8.4,0.5,7s2.7-1.6,4.1-0.7L32,25.5
	L59.4,6.3c1.3-0.9,3.1-0.6,4.1,0.7s0.6,3.1-0.7,4.1L33.7,31.5C33.2,31.8,32.6,32,32,32z"/>
</svg>
