<?xml version="1.0" encoding="utf-8"?>
<!-- Generator: Adobe Illustrator 26.0.2, SVG Export Plug-In . SVG Version: 6.00 Build 0)  -->
<svg version="1.1" id="Laag_1" xmlns="http://www.w3.org/2000/svg" xmlns:xlink="http://www.w3.org/1999/xlink" x="0px" y="0px"
	 viewBox="0 0 36.8 127.2" style="enable-background:new 0 0 36.8 127.2;" xml:space="preserve">
<style type="text/css">
	.st0{clip-path:url(#SVGID_00000145770718444168040370000016640486926311742115_);}
	.st1{fill:#FFFFFF;}
	.st2{fill:#DC051C;}
</style>
<g id="Group_413_00000116942900693953923360000012732097946406218144_" transform="translate(0 0.001)">
	<g>
		<g>
			<g>
				<g>
					<defs>
						<rect id="SVGID_1_" x="0" y="0" width="36.7" height="127.1"/>
					</defs>
					<clipPath id="SVGID_00000005974654121352033980000013563646611463597979_">
						<use xlink:href="#SVGID_1_"  style="overflow:visible;"/>
					</clipPath>
					
						<g id="Group_412_00000138561320554183352190000011912614993093662868_" transform="translate(-0.001 -0.001)" style="clip-path:url(#SVGID_00000005974654121352033980000013563646611463597979_);">
						<path id="Path_345_00000017501143444451924260000003655171900264466571_" class="st1" d="M18.3,56.9L7.1,45.7
							c-0.8-0.8-0.8-0.8-4.3,2.6c-3.1,3.1-3.2,3.2-2.4,4c4.1,4.1,7.7,7.7,11.3,11.3c-5.2,5.2-9.5,9.5-11.2,11.2
							c-0.8,0.8-0.8,0.8,2.6,4.3c3.1,3.1,3.2,3.2,4,2.4l11.2-11.4l11.5,11.4c0.6,0.6,0.7,0.7,3.8-2.5c3.4-3.4,3.4-3.5,2.7-4.2
							L25,63.5c3.5-3.5,7.2-7.2,11.4-11.4c0.6-0.6,0.7-0.7-2.5-3.8c-3.4-3.4-3.5-3.4-4.2-2.7L18.3,56.9"/>
						<path id="Path_346_00000072964792299447745170000003448947526095708349_" class="st1" d="M18.3,104.4l-9-9
							C8.5,94.6,8.5,94.6,5,98c-3.1,3.1-3.2,3.2-2.4,4l9,9l-9.2,9.2c-0.6,0.6-0.7,0.7,2.5,3.8c3.4,3.4,3.5,3.4,4.2,2.7l9.1-9.1
							l9.3,9.2c0.6,0.6,0.7,0.6,3.8-2.5c3.4-3.4,3.4-3.5,2.7-4.2c-3.2-3.2-6.2-6.2-9.1-9.1l9-9c0.8-0.8,0.8-0.8-2.6-4.3
							c-3.1-3.1-3.2-3.2-4-2.4L18.3,104.4"/>
						<path id="Path_347_00000137105300058490962540000012315252942613864837_" class="st1" d="M27.4,0.4l-9,9l-9-9
							C8.6-0.4,8.6-0.4,5.1,3C2,6.1,1.9,6.2,2.7,7c3.7,3.7,6.5,6.5,9,9l-9.2,9.2C1.9,25.8,1.8,25.9,5,29c3.4,3.4,3.5,3.4,4.2,2.7
							l9.1-9.1l9.2,9.2c0.6,0.6,0.7,0.7,3.8-2.5c3.4-3.4,3.4-3.5,2.7-4.2c-3.2-3.2-6.2-6.2-9.1-9.1c4.1-4.1,7.2-7.2,9-9
							c0.8-0.8,0.8-0.8-2.6-4.3C28.2-0.4,28.2-0.4,27.4,0.4"/>
						<path id="Path_348_00000139286981106113878900000001607798824913673356_" class="st2" d="M7.1,45.7c-0.8-0.8-0.8-0.8-4.3,2.6
							c-3.1,3.1-3.2,3.2-2.4,4c4.1,4.1,7.7,7.7,11.3,11.3c-5.2,5.2-9.5,9.5-11.2,11.2c-0.8,0.8-0.8,0.8,2.6,4.3
							c3.1,3.1,3.2,3.2,4,2.4l17.8-18C19.7,58.3,8.8,47.4,7.1,45.7"/>
					</g>
				</g>
			</g>
		</g>
	</g>
</g>
</svg>
