<?xml version="1.0" encoding="utf-8"?>
<!-- Generator: Adobe Illustrator 26.0.2, SVG Export Plug-In . SVG Version: 6.00 Build 0)  -->
<svg version="1.1" id="Laag_1" xmlns="http://www.w3.org/2000/svg" xmlns:xlink="http://www.w3.org/1999/xlink" x="0px" y="0px"
	 viewBox="0 0 36.7 127.1" style="enable-background:new 0 0 36.7 127.1;" xml:space="preserve">
<style type="text/css">
	.st0{clip-path:url(#SVGID_00000056393096872262380540000009025627839362616995_);}
	.st1{fill:#FFFFFF;}
	.st2{fill:#DC051C;}
</style>
<g id="Group_413" transform="translate(0 0.001)">
	<g>
		<defs>
			<rect id="SVGID_1_" y="0" width="36.7" height="127.1"/>
		</defs>
		<clipPath id="SVGID_00000095305532569618749970000015004737969648353690_">
			<use xlink:href="#SVGID_1_"  style="overflow:visible;"/>
		</clipPath>
		
			<g id="Group_412" transform="translate(-0.001 -0.001)" style="clip-path:url(#SVGID_00000095305532569618749970000015004737969648353690_);">
			<path id="Path_345" class="st1" d="M18.4,56.9L7.1,45.7c-0.8-0.8-0.8-0.8-4.3,2.6c-3.1,3.1-3.2,3.2-2.4,4
				c4.1,4.1,7.7,7.7,11.3,11.3C6.5,68.8,2.3,73,0.5,74.8c-0.8,0.8-0.8,0.8,2.6,4.3c3.1,3.1,3.2,3.2,4,2.4l11.3-11.3l11.4,11.4
				c0.6,0.6,0.7,0.7,3.8-2.5c3.4-3.4,3.4-3.5,2.7-4.2L25,63.5c3.6-3.6,7.2-7.2,11.4-11.4c0.6-0.6,0.7-0.7-2.5-3.8
				c-3.4-3.4-3.5-3.4-4.2-2.7L18.4,56.9"/>
			<path id="Path_346" class="st1" d="M18.4,104.4l-9-9c-0.8-0.8-0.8-0.8-4.3,2.6c-3.1,3.1-3.2,3.2-2.4,4l9,9l-9.2,9.2
				c-0.6,0.6-0.7,0.7,2.5,3.8c3.4,3.4,3.5,3.4,4.2,2.7l9.1-9.1l9.2,9.2c0.6,0.6,0.7,0.7,3.8-2.5c3.4-3.4,3.4-3.5,2.7-4.2
				c-3.2-3.2-6.2-6.2-9.1-9.1l9-9c0.8-0.8,0.8-0.8-2.6-4.3c-3.1-3.1-3.2-3.2-4-2.4L18.4,104.4"/>
			<path id="Path_347" class="st1" d="M27.4,0.4l-9,9l-9-9C8.6-0.3,8.5-0.4,5.1,3.1C2,6.2,1.9,6.2,2.7,7c3.7,3.7,6.5,6.5,9,9
				l-9.2,9.2c-0.6,0.6-0.7,0.7,2.5,3.8c3.4,3.4,3.5,3.4,4.2,2.7l9.1-9.1l9.2,9.2c0.6,0.6,0.7,0.7,3.8-2.5c3.4-3.4,3.4-3.5,2.7-4.2
				c-3.2-3.2-6.2-6.2-9.1-9.1c4.1-4.1,7.2-7.2,9-9c0.8-0.8,0.8-0.8-2.6-4.3C28.2-0.3,28.2-0.4,27.4,0.4"/>
			<path id="Path_348" class="st2" d="M7.1,45.7c-0.8-0.8-0.8-0.8-4.3,2.6c-3.1,3.1-3.2,3.2-2.4,4c4.1,4.1,7.7,7.7,11.3,11.3
				C6.5,68.8,2.2,73,0.5,74.8c-0.8,0.8-0.8,0.8,2.6,4.3c3.1,3.1,3.2,3.2,4,2.4l17.9-17.9C19.7,58.3,8.8,47.5,7.1,45.7"/>
		</g>
	</g>
</g>
</svg>
