<?xml version="1.0" encoding="utf-8"?>
<!-- Generator: Adobe Illustrator 26.1.0, SVG Export Plug-In . SVG Version: 6.00 Build 0)  -->
<svg version="1.1" id="Layer_1" xmlns="http://www.w3.org/2000/svg" xmlns:xlink="http://www.w3.org/1999/xlink" x="0px" y="0px"
	 viewBox="0 0 63.4 218" style="enable-background:new 0 0 63.4 218;" xml:space="preserve">
<style type="text/css">
	.st0{fill:#E30613;}
	.st1{fill:#FFFFFF;}
	.st2{display:none;}
	.st3{display:inline;fill:#FFFFFF;}
</style>
<g id="Laag_1">
	<path class="st0" d="M20.8,109.8c0,0,28.4,28.4,30.2,30.2c1.4,1.4,1.4,1.4,7.3-4.5c5.4-5.4,5.4-5.4,4.1-6.8
		c-7-7-13.3-13.3-19.4-19.4c9-9,16.3-16.3,19.3-19.3c1.4-1.4,1.4-1.4-4.5-7.3c-5.4-5.4-5.4-5.4-6.8-4.1l-30.3,30.2
		C20.5,109,20.5,109.5,20.8,109.8z"/>
	<path class="st0" d="M31.6,179.5c-7-7-12.4-12.4-15.4-15.4c-1.4-1.4-1.4-1.4-7.3,4.5c-5.4,5.4-5.4,5.4-4.1,6.8
		c6.4,6.4,11.2,11.2,15.5,15.5c-4.4,4.4-9.3,9.3-15.7,15.7c-1.1,1.1-1.1,1.1,4.3,6.6c5.8,5.8,6,5.8,7.2,4.6
		c5.5-5.5,10.7-10.7,15.6-15.6c4.4,4.4,9.3,9.3,15.7,15.7c1.1,1.1,1.1,1.1,6.6-4.3c5.8-5.8,5.8-6,4.6-7.2
		c-5.5-5.5-10.7-10.7-15.6-15.6c7-7,12.4-12.4,15.4-15.4c1.4-1.4,1.4-1.4-4.5-7.3c-5.4-5.4-5.5-5.4-6.8-4.1
		C40.7,170.4,35.9,175.2,31.6,179.5z"/>
	<path class="st0" d="M47.1,0.7c-6.4,6.4-11.2,11.2-15.5,15.5c-7-7-12.4-12.4-15.4-15.4c-1.4-1.4-1.4-1.4-7.3,4.5
		c-5.4,5.4-5.4,5.4-4.1,6.8c6.4,6.4,11.2,11.2,15.5,15.5C15.9,32,11,36.9,4.6,43.3c-1.1,1.1-1.1,1.1,4.3,6.6c5.8,5.8,6,5.8,7.2,4.6
		c5.5-5.5,10.7-10.7,15.6-15.6c4.4,4.4,9.3,9.3,15.7,15.7c1.1,1.1,1.1,1.1,6.6-4.3c5.8-5.8,5.8-6,4.6-7.2
		C53,37.7,47.8,32.5,42.9,27.6c7-7,12.4-12.4,15.4-15.4c1.4-1.4,1.4-1.4-4.5-7.3C48.5-0.5,48.4-0.6,47.1,0.7z"/>
	<path class="st1" d="M42.4,108.7c0,0-28.4-28.4-30.2-30.2c-1.4-1.4-1.4-1.4-7.3,4.5c-5.4,5.4-5.4,5.4-4.1,6.8
		c7,7,13.3,13.3,19.4,19.4c-9,9-16.3,16.3-19.3,19.3c-1.4,1.4-1.4,1.4,4.5,7.3c5.4,5.4,5.4,5.4,6.8,4.1l30.3-30.2
		C42.6,109.5,42.6,109,42.4,108.7z"/>
</g>
<g id="Laag_2" class="st2">
	<path class="st3" d="M42.4,108.7c0,0-28.4-28.4-30.2-30.2c-1.4-1.4-1.4-1.4-7.3,4.5c-5.4,5.4-5.4,5.4-4.1,6.8
		c7,7,13.3,13.3,19.4,19.4c-9,9-16.3,16.3-19.3,19.3c-1.4,1.4-1.4,1.4,4.5,7.3c5.4,5.4,5.4,5.4,6.8,4.1l30.3-30.2
		C42.6,109.5,42.6,109,42.4,108.7z"/>
</g>
</svg>
