<?xml version="1.0" encoding="utf-8"?>
<!-- Generator: Adobe Illustrator 26.1.0, SVG Export Plug-In . SVG Version: 6.00 Build 0)  -->
<svg version="1.1" id="Layer_1" xmlns="http://www.w3.org/2000/svg" xmlns:xlink="http://www.w3.org/1999/xlink" x="0px" y="0px"
	 viewBox="0 0 150 159" style="enable-background:new 0 0 150 159;" xml:space="preserve">
<style type="text/css">
	.st0{fill:#E30613;}
	.st1{fill:#FFFFFF;}
</style>
<g>
	<path class="st0" d="M10.8,149.4c-5.7,0-9.3-4.5-9.3-11.9V21c0-7.3,3.5-11.9,9.3-11.9c2.2,0,4.6,0.7,7.1,2l112.9,59.7
		c4.4,2.3,6.9,5.4,6.9,8.5c0,3.1-2.4,6.1-6.9,8.5L17.9,147.4C15.4,148.7,13,149.4,10.8,149.4C10.8,149.4,10.8,149.4,10.8,149.4z"/>
	<path class="st1" d="M10.8,10.6c1.9,0,4.2,0.6,6.4,1.8L130,72.1c3.9,2,6.1,4.6,6.1,7.2s-2.2,5.1-6.1,7.2L17.2,146.1
		c-2.3,1.2-4.5,1.8-6.4,1.8c-4.9,0-7.8-3.9-7.8-10.4V21C3,14.5,5.9,10.6,10.8,10.6 M10.8,7.6C4.4,7.6,0,12.6,0,21v116.6
		c0,8.4,4.4,13.4,10.8,13.4c2.4,0,5-0.7,7.8-2.2l112.9-59.7c10.2-5.4,10.2-14.2,0-19.6L18.6,9.8C15.8,8.3,13.1,7.6,10.8,7.6
		L10.8,7.6z"/>
</g>
</svg>
