<?xml version="1.0" encoding="utf-8"?>
<!-- Generator: Adobe Illustrator 26.1.0, SVG Export Plug-In . SVG Version: 6.00 Build 0)  -->
<svg version="1.1" xmlns="http://www.w3.org/2000/svg" xmlns:xlink="http://www.w3.org/1999/xlink" x="0px" y="0px"
	 viewBox="0 0 217.6 218" style="enable-background:new 0 0 217.6 218;" xml:space="preserve">
<style type="text/css">
	.st0{fill:#E30613;}
	.st1{fill:#FFFFFF;}
	.st2{display:none;}
	.st3{display:inline;fill:#FFFFFF;}
</style>
<g id="Laag_1">
	<circle class="st0" cx="108.8" cy="109" r="109"/>
	<path class="st1" d="M159.1,107.4L76.3,59.6c-1.3-0.7-2.8,0.2-2.8,1.6v95.6c0,1.5,1.6,2.4,2.8,1.6l82.8-47.8
		C160.3,109.9,160.3,108.1,159.1,107.4z"/>
</g>
<g id="Laag_2" class="st2">
	<path class="st3" d="M119.5,108.7c0,0-28.4-28.4-30.2-30.2c-1.4-1.4-1.4-1.4-7.3,4.5c-5.4,5.4-5.4,5.4-4.1,6.8
		c7,7,13.3,13.3,19.4,19.4c-9,9-16.3,16.3-19.3,19.3c-1.4,1.4-1.4,1.4,4.5,7.3c5.4,5.4,5.4,5.4,6.8,4.1l30.3-30.2
		C119.8,109.5,119.8,109,119.5,108.7z"/>
</g>
</svg>
