<?xml version="1.0" encoding="utf-8"?>
<!-- Generator: Adobe Illustrator 26.0.2, SVG Export Plug-In . SVG Version: 6.00 Build 0)  -->
<svg version="1.1" id="Laag_1" xmlns="http://www.w3.org/2000/svg" xmlns:xlink="http://www.w3.org/1999/xlink" x="0px" y="0px"
	 viewBox="0 0 36.7 127.1" style="enable-background:new 0 0 36.7 127.1;" xml:space="preserve">
<style type="text/css">
	.st0{clip-path:url(#SVGID_00000069396552447317451360000007092830402000525471_);}
	.st1{fill:#FFFFFF;}
	.st2{fill:#DC051C;}
</style>
<g id="Group_413" transform="translate(0 0.001)">
	<g>
		<defs>
			<rect id="SVGID_1_" y="0" width="36.7" height="127.1"/>
		</defs>
		<clipPath id="SVGID_00000147201494453955898750000012782941861223953822_">
			<use xlink:href="#SVGID_1_"  style="overflow:visible;"/>
		</clipPath>
		
			<g id="Group_412" transform="translate(-0.001 -0.001)" style="clip-path:url(#SVGID_00000147201494453955898750000012782941861223953822_);">
			<path id="Path_345" class="st1" d="M18.4,70.2l11.2,11.2c0.8,0.8,0.8,0.8,4.3-2.6c3.1-3.1,3.2-3.2,2.4-4
				c-4.1-4.1-7.7-7.7-11.3-11.3c5.2-5.2,9.5-9.5,11.2-11.2c0.8-0.8,0.8-0.8-2.6-4.3c-3.1-3.1-3.2-3.2-4-2.4L18.4,57L6.9,45.6
				c-0.6-0.6-0.7-0.7-3.8,2.5c-3.4,3.4-3.4,3.5-2.7,4.2l11.3,11.3C8.2,67.1,4.5,70.8,0.3,75c-0.6,0.6-0.7,0.7,2.5,3.8
				c3.4,3.4,3.5,3.4,4.2,2.7L18.4,70.2"/>
			<path id="Path_346" class="st1" d="M18.4,22.7l9,9c0.8,0.8,0.8,0.8,4.3-2.6c3.1-3.1,3.2-3.2,2.4-4l-9-9l9.2-9.2
				c0.6-0.6,0.7-0.7-2.5-3.8c-3.4-3.4-3.5-3.4-4.2-2.7l-9.1,9.1L9.2,0.3C8.6-0.3,8.5-0.3,5.4,2.8C2,6.2,2,6.3,2.7,7
				c3.2,3.2,6.2,6.2,9.1,9.1l-9,9c-0.8,0.8-0.8,0.8,2.6,4.3c3.1,3.1,3.2,3.2,4,2.4L18.4,22.7"/>
			<path id="Path_347" class="st1" d="M9.3,126.7l9-9l9,9c0.8,0.8,0.8,0.8,4.3-2.6c3.1-3.1,3.2-3.2,2.4-4c-3.7-3.7-6.5-6.5-9-9
				l9.2-9.2c0.6-0.6,0.7-0.7-2.5-3.8c-3.4-3.4-3.5-3.4-4.2-2.7l-9.1,9.1l-9.2-9.2c-0.6-0.6-0.7-0.7-3.8,2.5C2,101.2,2,101.3,2.7,102
				c3.2,3.2,6.2,6.2,9.1,9.1c-4.1,4.1-7.2,7.2-9,9c-0.8,0.8-0.8,0.8,2.6,4.3C8.5,127.5,8.5,127.5,9.3,126.7"/>
			<path id="Path_348" class="st2" d="M29.6,81.4c0.8,0.8,0.8,0.8,4.3-2.6c3.1-3.1,3.2-3.2,2.4-4c-4.1-4.1-7.7-7.7-11.3-11.3
				c5.2-5.2,9.5-9.5,11.2-11.2c0.8-0.8,0.8-0.8-2.6-4.3c-3.1-3.1-3.2-3.2-4-2.4L11.8,63.6C17,68.8,27.9,79.7,29.6,81.4"/>
		</g>
	</g>
</g>
</svg>
