<?xml version="1.0" encoding="utf-8"?>
<!-- Generator: Adobe Illustrator 26.0.2, SVG Export Plug-In . SVG Version: 6.00 Build 0)  -->
<svg version="1.1" id="Laag_1" xmlns="http://www.w3.org/2000/svg" xmlns:xlink="http://www.w3.org/1999/xlink" x="0px" y="0px"
	 viewBox="0 0 64 64" style="enable-background:new 0 0 64 64;" xml:space="preserve">
<style type="text/css">
	.st0{fill:#FFFFFF;}
</style>
<path id="Path_372" class="st0" d="M63.1,59L46.6,42.5c9-11.3,7.2-27.8-4.1-36.8S14.8-1.5,5.7,9.8s-7.2,27.8,4.1,36.8
	c9.6,7.6,23.1,7.6,32.7,0L59,63.1c1.1,1.1,3,1.1,4.1,0C64.3,62,64.3,60.2,63.1,59z M26.2,46.5C15,46.5,5.8,37.4,5.8,26.1
	S14.9,5.8,26.2,5.8s20.4,9.1,20.4,20.4S37.4,46.5,26.2,46.5L26.2,46.5z"/>
</svg>
