<?xml version="1.0" encoding="utf-8"?>
<!-- Generator: Adobe Illustrator 26.0.2, SVG Export Plug-In . SVG Version: 6.00 Build 0)  -->
<svg version="1.1" id="Laag_1" xmlns="http://www.w3.org/2000/svg" xmlns:xlink="http://www.w3.org/1999/xlink" x="0px" y="0px"
	 viewBox="0 0 64 52" style="enable-background:new 0 0 64 52;" xml:space="preserve">
<style type="text/css">
	.st0{fill-rule:evenodd;clip-rule:evenodd;fill:#FFFFFF;}
</style>
<path id="Path_163" class="st0" d="M0,46.2c17.5,11,40.7,5.8,51.7-11.7c3.8-6,5.8-12.9,5.8-20V13c0.8-0.6,5.4-4.3,6.5-6.8
	c-2.4,1-4.9,1.6-7.4,1.9l0,0c0.3-0.2,5.1-3.4,5.7-7.3c-2,1.1-4.2,2-6.3,2.7C55.3,3.8,54.6,4,54,4.2C51.5,1.5,48,0,44.4,0
	c-7.3,0-13.1,5.9-13.2,13.2c0,1,0.1,2,0.3,3c-10.5-0.8-20.2-5.7-27-13.6c0,0-6.3,8.6,3.8,17.4c-2-0.1-4-0.7-5.7-1.7
	c-0.4,6.4,4.1,12,10.4,13.1c-1.9,0.5-3.9,0.6-5.8,0.2c1.6,5.3,6.5,9.1,12.1,9.2C13.9,45.1,6.9,47.1,0,46.2z"/>
</svg>
