<?xml version="1.0" encoding="utf-8"?>
<!-- Generator: Adobe Illustrator 26.0.2, SVG Export Plug-In . SVG Version: 6.00 Build 0)  -->
<svg version="1.1" id="Laag_1" xmlns="http://www.w3.org/2000/svg" xmlns:xlink="http://www.w3.org/1999/xlink" x="0px" y="0px"
	 viewBox="0 0 64 44.8" style="enable-background:new 0 0 64 44.8;" xml:space="preserve">
<style type="text/css">
	.st0{fill-rule:evenodd;clip-rule:evenodd;fill:#E30613;}
</style>
<path id="Path_162" class="st0" d="M62.6,7c-0.7-2.8-2.9-4.9-5.7-5.7C52,0,32,0,32,0S12,0,7,1.4C4.2,2.1,2,4.3,1.3,7
	C0,12,0,22.4,0,22.4s0,10.4,1.3,15.4C2,40.6,4.2,42.7,7,43.5c5,1.4,25,1.4,25,1.4s20,0,25-1.3c2.8-0.7,4.9-2.9,5.7-5.7
	c1.4-5,1.4-15.4,1.4-15.4S64,12,62.6,7z M25.6,32l16.6-9.6l-16.6-9.6V32z"/>
</svg>
